# xmcd
#
# Track frame offsets: 
#        150
#        7432
#        52752
#        83222
#        118360
#        155130
#        187397
#        233722
#        269957
#        305645
#
# Disc length: 4319 seconds
#
# Revision: 1
# Processed by: cddbd v1.5.2PL0 Copyright (c) Steve Scherf et al.
# Submitted via: ExactAudioCopy v1.0b3
#
DISCID=9a10dd0a
DTITLE=Sigur Rós - Agaetis Byrjun
DYEAR=1999
DGENRE=
TTITLE0=Intro
TTITLE1=Svefn-G-Englar
TTITLE2=Staralfur
TTITLE3=Flugufrelsarinn
TTITLE4=Ny Batteri'
TTITLE5=Hjartad Hamast (Bamm Bamm Bamm)
TTITLE6=Vidrar Vel Til Loftarasa
TTITLE7=Olsen Olsen
TTITLE8=Agaetis Byrjun
TTITLE9=Avalon
EXTD=
EXTT0=
EXTT1=
EXTT2=
EXTT3=
EXTT4=
EXTT5=
EXTT6=
EXTT7=
EXTT8=
EXTT9=
PLAYORDER=
